<svg id="Layer_1" data-name="Layer 1" xmlns="http://www.w3.org/2000/svg" viewBox="0 0 1280 700"><defs><style>.cls-1{fill:#202020;}.cls-2{fill:#da99cc;}.cls-3{fill:#dbe966;}</style></defs><title>Artboard 2</title><path d="M127.32,432.06c-2.26,5.88-2.57,12-2.59,18.24q-.15,74.1-.29,148.21c0,10.45,4.87,18.79,12.44,25.7a31.28,31.28,0,0,1,2.48,2.4c2.79,3.21,2.13,5.42-2,6a110.59,110.59,0,0,1-15,1.43,116.09,116.09,0,0,1-17.25-1.68c5.43,0,10.88.27,16.29-.09a92.76,92.76,0,0,0,12.54-2.12,3.88,3.88,0,0,0,2.52-1.91c.21-.55-.88-1.79-1.61-2.47-8-7.39-13-15.86-12.88-27.32.43-41,.45-82,.64-123,0-9.65.15-19.3.24-29A25,25,0,0,1,127.32,432.06Z"/><path d="M115.06,425c5.31-1.55,11.32-3,17.09-5.08,4.92-1.77,8.59-5.33,11.59-9.72,20.51-29.91,41-59.87,61.79-89.55,6.62-9.45,14.36-18.12,21.59-27.14l.53.36c-.43.69-.83,1.4-1.3,2.07L155.68,397.11c-4.2,6-8.27,12.12-12.69,18C135.69,424.76,125.17,425.37,115.06,425Z"/><line x1="21.01" y1="294.42" x2="91.05" y2="395.46"/><path class="cls-1" d="M21,294.42a31.91,31.91,0,0,0,4,7.77l30.84,44.49L85.17,389a31.83,31.83,0,0,0,5.88,6.44,31.73,31.73,0,0,0-4-7.77c-4.88-7.05-29.35-42.34-29.35-42.34S32,308.26,26.89,300.86A31.54,31.54,0,0,0,21,294.42Z"/><path d="M111.59,598.51v.1c.69-.59,2.32-20.37,2.25-30.22-.2-31-.24-61.94-.39-92.91,0-9.65-.15-19.3-.24-29a24.9,24.9,0,0,0-4.49-14.47c2.25,5.88,2.57,12,2.58,18.24Q111.45,524.4,111.59,598.51Z"/><path d="M194.14,633.77a20,20,0,0,0-5.94-4.36c-5.85-2.46-11.85-4.56-17.84-6.67-2.16-.75-4.46-1.1-6.69-1.64.08.41.24.49.4.53,7.67,2.13,15.39,4.15,22.23,8.42,8.32,5.19,8.41,11.09-.26,15.58a91,91,0,0,1-18,6.78c-15.26,4.13-30.95,5.74-46.69,6.74l-1.07.06q-6-.21-12-.59c-15.74-1-31.43-2.61-46.69-6.74a91.36,91.36,0,0,1-18-6.78c-8.68-4.49-8.58-10.39-.26-15.58,6.84-4.27,14.56-6.29,22.22-8.42.17,0,.33-.12.41-.53a68.2,68.2,0,0,0-6.7,1.64c-6,2.1-12,4.21-17.83,6.67a19.82,19.82,0,0,0-5.94,4.36c-3.45,3.43-3.59,7.54,0,10.7a40.32,40.32,0,0,0,10,6.4c11.66,5.18,24.13,7.42,36.69,9.09,1.33.18,27.77,3.63,40.31,2.91a143.54,143.54,0,0,0,31.28-3.27c5.92-1.25,20.73-3.88,30.46-8.2a40.69,40.69,0,0,0,10-6.4C197.72,641.31,197.59,637.2,194.14,633.77Z"/><path class="cls-2" d="M202.76,292.83c-10.8-1.35-21.6-2.65-32.38-4.07-15.16-2-30.29-4.11-45.38-7,5.91,0,11.89-.56,17.72.1,16.42,1.88,32.74,4.56,49.17,6.3,7.05.75,14.28.17,21.4-.26,4-.24,7.94-1.56,8.75-6.38,1-6.11,3.5-12.58-2.71-17.54-3.31-2.64-6.83-5-10.06-7.74,9.52,2.14,16.25,7.43,19.12,17.09v5.13c-2.4,6.68-7.5,10.86-13.33,14.35Z"/><path class="cls-2" d="M119.72,37.56c-12.3,6.15-17.85,12.24-21.57,23.24a19.69,19.69,0,0,0,.67,14.9,197.54,197.54,0,0,1,8.08,20.94c2.4,7.82-2.38,16.13-9.83,17.59.53-.92.74-1.73,1.26-2.14,7.13-5.57,7.07-12.8,4.48-20.38-2.36-6.93-5.23-13.68-7.64-20.59-.7-2-.67-6.37-.67-6.37s3.69-14.89,12.92-22.06"/><path class="cls-2" d="M20.28,271.3c1.57-5.23,4.39-9.33,10.62-11.62-1.87,2.8-3.31,4.8-4.57,6.91-4,6.65-3.45,10.33,1.79,16.05,6.3,6.87,15,6.71,23.13,8,1.66.25,3.36.24,6.11.42-16.56,2.49-30.84-1.3-37.08-13.57Z"/><path class="cls-2" d="M215.06,292.83c7-1.78,11.74-7.09,13.33-14.35"/><path class="cls-2" d="M150.34,120.24c4.46.84,9,1.41,13.33,2.63a8.07,8.07,0,0,1,4.65,3.69c8.66,17.51,19.85,33.83,25.25,52.9,1.58,5.56,3.52,11,4.84,16.66,1.71,7.29-1.68,9.7-9,8.45-19.58-3.35-36.25-13.37-53.48-22.21-1.51-.77-3-1.68-4.4-2.59-.4-.25-.67-.72-.65-2.1,2.45.94,4.91,1.86,7.35,2.83q24.1,9.69,48.2,19.36a12,12,0,0,0,4,.61c4.77.12,6.12-1.53,5.07-6.29a27.45,27.45,0,0,0-1.63-4.83q-11.82-27.15-23.68-54.28c-2.82-6.46-6.76-11.36-14.59-11.75-1.87-.1-3.7-1.34-5.54-2.06Z"/><path class="cls-2" d="M74.66,196.94a25.93,25.93,0,0,1-2.94,1.57c-5.71,2.17-11.5,4.14-17.15,6.45-6.43,2.63-9.86,1.41-10.34-5.43a70.25,70.25,0,0,1,1.5-20.09c1.3-5.7,4.35-11.05,7-16.39,4.28-8.78,7.6-17.75,8.84-27.56,1.28-10.15,7.34-14.42,18.17-13.23-10.55-.08-14.06,6.44-14.82,15.27-1,11.94-6.18,22.18-12.58,32A39.38,39.38,0,0,0,46,194.83c.49,6.18,2.34,7.56,8.16,5.56,4.33-1.48,8.43-3.7,12.8-5,2.35-.69,5.07-.12,7.62-.12Z"/><path class="cls-2" d="M190.82,245.68c-8.07-4-14.95-1.77-21.6,3.06-4.28,3.11-9.4,2.7-13.75.73-9.57-4.34-17.9-4.11-25.23,4.2a9.56,9.56,0,0,1-4.76,2.87c-1.82.4-3.86-.23-5.8-.4l0-1.73a34.56,34.56,0,0,1,5.23-1.25c4.45-.37,6.91-2.4,8.24-6.91.54-1.8,4-4,6-3.84,4,.27,7.89,1.79,11.67,3.22,5.55,2.09,10.82,2.6,16.18-.55C177.54,238.88,180.08,239,190.82,245.68Z"/><path class="cls-2" d="M117.36,131.93c-1.41,4.18-3.16,8.25-4.8,12.35-1.78,4.47-3,8.76-1.17,13.79,1.29,3.61,1.19,7.88-3.24,10.23a138.9,138.9,0,0,1-39,13.92l-.4-1.55c8.64-2.93,17.29-5.83,25.92-8.8a65.73,65.73,0,0,0,7.59-2.93c6.21-3,7.81-6.13,6-12.69-1.2-4.26-.51-7.8,1.38-11.72,2.42-5,4-10.44,5.94-15.68.62-1.65,2.53-5.6,3.19-7.22Z"/><path class="cls-2" d="M120.74,124.7c2.48,10.7,7,24.93,9.18,35.69.87,4.26,2.64,7.24,6.73,8.77,7.3,2.73,14.6,5.48,21.8,8.51-9.41-1.41-18.9-2.53-26.69-8.9-4-3.24-5.92-7.09-5.46-12.46.27-3.07-.82-6.3-1.5-9.41-1.31-6-2.76-12.05-4.16-18.07C120.74,127.78,120.1,124.89,120.74,124.7Z"/><path class="cls-2" d="M86.07,284.13c15.85-5,31.74-9.86,47.54-15,6.68-2.17,13.19-4.9,19.28-7.18-2.52,1.89-5.44,5.42-9.12,6.63-18.09,6-36.38,11.35-54.6,16.9a12.92,12.92,0,0,1-2.5.25Z"/><path class="cls-2" d="M80.79,201.15c8.67,7.67,4.66,21.42-5.9,40.78C77.64,228.47,83.68,215.49,80.79,201.15Z"/><path class="cls-2" d="M102.11,181.18c3.06-2.06,6-4.41,9.22-6.12,5.18-2.73,7.06-6.63,6.67-12.48-.34-5.26.43-10.59.72-15.9l2.06.1c-.37,8-.47,16-1.33,24-.2,1.85-2.79,3.76-4.68,5-3.74,2.5-7.77,4.58-11.67,6.82Z"/><path class="cls-2" d="M150.14,200.89l10.93,37.93-1.33.38C152.75,227.48,150.58,214.38,150.14,200.89Z"/><path class="cls-2" d="M86.42,251.89c-2.11-.51-3.73-.8-5.3-1.29a32.18,32.18,0,0,0-21,.49c-4.94,1.75-6,1.18-8.35-3.14C63.58,246.8,75.35,242.71,86.42,251.89Z"/><path class="cls-2" d="M88.56,138.55c2,10.39-2,19.48-8.7,27.75C82.81,156.9,85.75,147.5,88.56,138.55Z"/><path class="cls-2" d="M142.35,66.14c3.76,9.12-1.83,17.16-7.25,25.06C141.25,77.54,142.27,74.47,142.35,66.14Z"/><line class="cls-2" x1="159.7" y1="154.43" x2="168.93" y2="172.88"/><path class="cls-3" d="M234.2,309.37l54.3,121.36H262.6l-8-18.07H213.84l-8,18.07H180Zm10.92,82.19L234.27,366.4l-11,25.16Z"/><path class="cls-3" d="M322.74,311.81V407h47.81v23.75H298.84V311.81Z"/><path class="cls-3" d="M429.36,431.54A58.48,58.48,0,0,1,386.79,414q-17.7-17.72-17.71-42.65t17.71-42.71q17.77-17.79,42.57-17.78l-.08.29a61.42,61.42,0,0,1,42.79,17.63l-17,17.05a35.18,35.18,0,0,0-25.6-10.63,34.46,34.46,0,0,0-25.52,10.63,36.14,36.14,0,0,0,0,51.2,36.24,36.24,0,0,0,51.2-.08l17,17.05A60.07,60.07,0,0,1,429.36,431.54Z"/><path class="cls-3" d="M572,328.63q17.78,17.78,17.78,42.71a60.31,60.31,0,0,1-60.43,60.2A60.18,60.18,0,0,1,469,371.34q0-24.85,17.7-42.71t42.64-17.78Q554.2,310.85,572,328.63Zm-68.25,17a36.18,36.18,0,0,0,51.13,51.2,36.18,36.18,0,1,0-51.13-51.2Z"/><path class="cls-3" d="M623.78,311.81v47.58h39.77V311.81h23.83V430.73H663.55V383.07H623.78v47.66H600V311.81Z"/><path class="cls-3" d="M800.71,328.63q17.77,17.78,17.78,42.71a60.31,60.31,0,0,1-60.43,60.2A58.59,58.59,0,0,1,715.42,414q-17.7-17.72-17.71-42.65t17.71-42.71q17.77-17.79,42.64-17.78T800.71,328.63Zm-68.25,17a36.18,36.18,0,0,0,51.13,51.2,36.18,36.18,0,1,0-51.13-51.2Z"/><path class="cls-3" d="M852.58,311.81V407h47.81v23.75H828.68V311.81Z"/><path class="cls-3" d="M910.73,311.81h23.9V430.73h-23.9Z"/><path class="cls-3" d="M982.53,407.32c6.6,0,13.89-5.48,13.89-12.08,0-10.86-14.57-12.38-22.8-15.22-14.5-4.95-27.3-16.85-27.3-33a36.28,36.28,0,0,1,72.21-5l-23.73,5a12.07,12.07,0,0,0-24.13.08c0,10.71,13.56,13.56,21.82,16,15,4.33,28.24,15.76,28.24,32.32,0,20.06-18,36.25-38,36.25-18.39,0-35-13.49-37.73-31.2l23.74-5.05c0,6.64,7.21,12.05,13.92,12.05Z"/><path class="cls-3" d="M1109.12,311.81v23.68h-29.21v95.24h-24V335.49h-29.29V311.81Z"/><path class="cls-3" d="M1119.46,311.81h23.91V430.73h-23.91Z"/><path class="cls-3" d="M1214,431.54a60.18,60.18,0,0,1-60.27-60.2q0-24.85,17.7-42.71T1214,310.85l-.07.29a61.45,61.45,0,0,1,42.79,17.63l-17,17.05a35.19,35.19,0,0,0-25.6-10.63,34.46,34.46,0,0,0-25.53,10.63,36.16,36.16,0,0,0,0,51.2,36.24,36.24,0,0,0,51.2-.08l17,17.05A60.07,60.07,0,0,1,1214,431.54Z"/></svg>