<svg id="Layer_1" data-name="Layer 1" xmlns="http://www.w3.org/2000/svg" viewBox="0 0 1280 700"><defs><style>.cls-1{fill:#fff;}.cls-2{fill:#da99cc;}.cls-3{fill:#dbe966;}</style></defs><title>Artboard 1</title><path class="cls-1" d="M125.24,637a84.13,84.13,0,0,1-9.25-.58h1.84c2.51,0,4.58-.06,6.49-.19a77.57,77.57,0,0,0,11-1.79l1.59-.34a4.28,4.28,0,0,0,2.88-2.21c.36-.93-1.09-2.42-1.73-3-8.77-8.13-12.8-16.67-12.69-26.87.3-28.79.4-58.06.5-86.37q.08-18.13.14-36.26.06-11.94.2-23.88l0-5a25.86,25.86,0,0,1,2.22-10.46,60.93,60.93,0,0,0-1.32,14.21q0,23.06-.11,46.11c-.08,33.33-.17,67.79-.18,101.69,0,9.77,4.11,18.27,12.57,26l.43.39a24.65,24.65,0,0,1,2,2c1.28,1.47,1.79,2.7,1.47,3.55s-1.39,1.36-3.15,1.6l-.67.1A104,104,0,0,1,125.3,637Z"/><path class="cls-1" d="M126.62,462.34l-.09,38.2c-.08,33.27-.17,67.68-.18,101.51,0,9.93,4.16,18.55,12.73,26.38l.43.39a23.74,23.74,0,0,1,2,1.91c1.12,1.29,1.62,2.4,1.38,3s-1.23,1.08-2.75,1.29l-.69.09a116.06,116.06,0,0,1-12.36,1.29c2.82-.36,5.62-1,8.35-1.53l1.59-.34a4.77,4.77,0,0,0,3.25-2.52c.34-.9-.29-2.09-1.86-3.56-8.65-8-12.63-16.45-12.53-26.49.3-28.79.41-58.07.5-86.38q.08-18.12.14-36.26c0-5.66.08-11.38.13-17m3.6-26.27a24.75,24.75,0,0,0-4.48,14.43c-.1,9.62-.2,19.25-.25,28.87-.19,40.87-.21,81.75-.64,122.63-.12,11.43,4.91,19.87,12.85,27.24.73.68,1.81,1.91,1.6,2.46a3.8,3.8,0,0,1-2.51,1.9,90.66,90.66,0,0,1-12.5,2.12c-2.15.14-4.3.19-6.46.19-3.26,0-6.53-.1-9.79-.1a114.1,114.1,0,0,0,17.2,1.67h.06a109,109,0,0,0,14.94-1.42c4.11-.58,4.77-2.79,2-6a27.92,27.92,0,0,0-2.47-2.39c-7.55-6.9-12.4-15.21-12.4-25.63q0-73.9.29-147.8c0-6.19.33-12.32,2.58-18.19Z"/><path class="cls-1" d="M121.35,428.61l1.63-.45c4-1.1,8.15-2.24,12.23-3.71,4.5-1.63,8.36-4.86,11.8-9.88l7.34-10.72c17.69-25.83,36-52.53,54.27-78.59,4.52-6.44,9.65-12.63,14.62-18.62,1.57-1.9,3.18-3.84,4.77-5.8q-34.95,50.06-69.92,100.09l-3.43,4.95c-3,4.29-6,8.73-9.21,12.95-6.5,8.62-15.67,9.78-23.78,9.78Z"/><path class="cls-1" d="M220.48,310.75q-31.39,45-62.8,89.89-1.73,2.48-3.43,5c-3,4.28-6,8.72-9.2,12.93-5.39,7.15-12.69,9.06-19.65,9.48,3.3-.92,6.66-1.89,10-3.09,4.6-1.66,8.54-5,12-10.07l7.32-10.68c17.69-25.83,36-52.55,54.29-78.62,3.56-5.08,7.51-10,11.45-14.8m9.26-12.83c-7.21,9-14.92,17.64-21.53,27.06-20.78,29.6-41.17,59.47-61.61,89.3-3,4.38-6.66,7.93-11.56,9.7-5.76,2.08-11.75,3.52-17,5.06,1.23,0,2.46.07,3.68.07,8.9,0,17.78-1.5,24.18-10,4.4-5.83,8.46-11.92,12.65-17.91Q193.75,350.79,229,300.34c.46-.66.86-1.38,1.29-2.07l-.53-.35Z"/><line class="cls-1" x1="24.21" y1="298.82" x2="94.05" y2="399.57"/><path class="cls-1" d="M24.2,298.82a31.56,31.56,0,0,0,4,7.76l30.74,44.35,29.26,42.2a31.83,31.83,0,0,0,5.88,6.44,31.91,31.91,0,0,0-4-7.77L60.83,349.59,30.09,305.25A31.24,31.24,0,0,0,24.2,298.82Z"/><path class="cls-1" d="M115,595.39c0-31.77-.1-63.89-.18-95q-.06-23.06-.11-46.12a60.93,60.93,0,0,0-1.32-14.21,26,26,0,0,1,2.23,10.46l0,5q.12,11.94.2,23.88.08,18.15.14,36.3c.06,18.47.13,37.57.25,56.35C116.32,578.44,115.67,588.71,115,595.39Z"/><path class="cls-1" d="M115.26,462.34c0,5.65.1,11.37.13,17q.08,18.11.14,36.22c.06,18.5.13,37.62.25,56.43,0,2.8-.09,6.19-.26,9.68,0-27.21-.1-54.57-.17-81.19l-.09-38.17m-3.59-26.27c2.24,5.87,2.56,12,2.57,18.19q.15,73.89.29,147.8v.09c.69-.58,2.31-20.31,2.25-30.13-.2-30.89-.25-61.77-.39-92.65,0-9.62-.15-19.25-.24-28.87a24.89,24.89,0,0,0-4.48-14.43Z"/><path class="cls-1" d="M121.43,665.31c-13.59,0-36-3-36.26-3-12-1.6-24.68-3.79-36.45-9a40.1,40.1,0,0,1-9.81-6.3,6.53,6.53,0,0,1-2.5-4.64,7.23,7.23,0,0,1,2.48-5.29,19.69,19.69,0,0,1,5.76-4.25c1.1-.46,2.21-.92,3.33-1.36-.64.35-1.27.73-1.89,1.12-4.35,2.71-6.58,5.69-6.46,8.63s2.45,5.54,6.75,7.77a90.62,90.62,0,0,0,18.09,6.8c16.11,4.36,32.63,5.85,46.66,6.73,4,.25,8,.45,12,.6l1.12-.07c14-.88,30.54-2.37,46.65-6.73a90.15,90.15,0,0,0,18.09-6.8c4.31-2.23,6.64-4.91,6.75-7.77s-2.11-5.92-6.45-8.63c-.63-.39-1.26-.76-1.9-1.12,1.12.44,2.23.9,3.33,1.36a19.75,19.75,0,0,1,5.77,4.25,7.21,7.21,0,0,1,2.47,5.29,6.49,6.49,0,0,1-2.5,4.64,39.86,39.86,0,0,1-9.8,6.3c-8.35,3.71-20.31,6.13-27.45,7.57l-2.82.58a142,142,0,0,1-29.59,3.26h-1.5C124.15,665.27,122.85,665.31,121.43,665.31Z"/><path class="cls-1" d="M42.6,634.52c-2.37,2.15-3.56,4.43-3.47,6.69s1.37,5.27,7,8.19a90.77,90.77,0,0,0,18.19,6.84C80.5,660.61,97,662.11,111.1,663c4,.25,8,.45,12,.6h.09l.47,0,.6,0c14-.88,30.6-2.38,46.75-6.75a90.77,90.77,0,0,0,18.19-6.84c5.65-2.92,6.94-6.06,7-8.19s-1.09-4.54-3.47-6.69a25.66,25.66,0,0,1,3.36,2.88,6.75,6.75,0,0,1,2.33,4.92,6,6,0,0,1-2.33,4.28,38.91,38.91,0,0,1-9.67,6.22c-8.31,3.69-20.23,6.1-27.35,7.54l-2.83.58a141,141,0,0,1-29.48,3.25h-1.57c-1.11.07-2.4.1-3.81.1-13.58,0-36-3-36.19-3-11.94-1.59-24.6-3.78-36.32-9a39.21,39.21,0,0,1-9.68-6.21,6.06,6.06,0,0,1-2.33-4.29,6.79,6.79,0,0,1,2.33-4.92,26.33,26.33,0,0,1,3.36-2.88m26.32-10.46a68.47,68.47,0,0,0-6.68,1.63c-6,2.1-12,4.19-17.78,6.65a19.75,19.75,0,0,0-5.92,4.35c-3.44,3.42-3.58,7.52,0,10.67a40.74,40.74,0,0,0,9.93,6.38c11.63,5.17,24.07,7.4,36.59,9.07,1.21.16,23,3,36.33,3,1.39,0,2.69,0,3.87-.1h1.51a144.18,144.18,0,0,0,29.69-3.27c5.9-1.25,20.67-3.87,30.37-8.18a40.74,40.74,0,0,0,9.93-6.38c3.63-3.15,3.49-7.25,0-10.67a20,20,0,0,0-5.92-4.35c-5.83-2.46-11.82-4.55-17.79-6.65a67.77,67.77,0,0,0-6.68-1.63c.09.41.24.48.41.53,7.64,2.12,15.34,4.13,22.16,8.39,8.3,5.18,8.4,11.06-.26,15.53a90.65,90.65,0,0,1-18,6.77c-15.22,4.11-30.86,5.73-46.55,6.71l-1.07.07c-4-.15-8-.34-12-.6-15.7-1-31.34-2.6-46.56-6.71a91.12,91.12,0,0,1-18-6.77C38,644,38.06,638.16,46.35,633c6.82-4.26,14.52-6.27,22.17-8.39.16-.05.32-.12.4-.53Z"/><path class="cls-2" d="M205.44,288.75c-10.76-1.35-21.53-2.64-32.28-4.06-15.11-2-30.21-4.1-45.25-7,5.89,0,11.85-.56,17.67.11,16.37,1.87,32.65,4.54,49,6.28,7,.74,14.24.17,21.34-.26,4-.24,7.92-1.56,8.72-6.37,1-6.09,3.49-12.54-2.7-17.48-3.3-2.64-6.8-5-10-7.73,9.49,2.13,16.21,7.41,19.06,17v5.11c-2.38,6.67-7.47,10.83-13.29,14.31Z"/><path class="cls-2" d="M122.64,34.19c-12.27,6.14-17.8,12.21-21.51,23.18a19.61,19.61,0,0,0,.66,14.85,195.94,195.94,0,0,1,8.06,20.88c2.4,7.81-2.37,16.1-9.79,17.55.52-.92.73-1.73,1.25-2.14,7.11-5.55,7-12.76,4.47-20.32-2.35-6.91-5.22-13.64-7.62-20.53-.7-2-.67-6.35-.67-6.35s3.68-14.85,12.88-22"/><path class="cls-2" d="M23.47,267.28c1.57-5.21,4.39-9.31,10.59-11.59-1.85,2.8-3.3,4.79-4.55,6.89-4,6.64-3.44,10.31,1.79,16,6.28,6.85,14.9,6.69,23.06,7.94,1.65.25,3.35.24,6.1.42-16.52,2.48-30.76-1.3-37-13.54Z"/><path class="cls-2" d="M217.71,288.75c6.94-1.78,11.71-7.07,13.29-14.31"/><path class="cls-2" d="M153.18,116.64c4.44.83,8.95,1.41,13.29,2.62a8.13,8.13,0,0,1,4.64,3.68c8.63,17.47,19.79,33.74,25.18,52.75,1.57,5.55,3.51,11,4.82,16.62,1.7,7.27-1.68,9.68-9,8.43-19.53-3.34-36.16-13.34-53.33-22.15-1.51-.77-2.95-1.68-4.39-2.58-.4-.26-.67-.72-.65-2.1,2.44.94,4.9,1.85,7.33,2.83q24,9.66,48.07,19.3a11.89,11.89,0,0,0,4,.61c4.75.12,6.09-1.53,5.05-6.28a27.53,27.53,0,0,0-1.63-4.81Q184.83,158.48,173,131.43c-2.81-6.44-6.73-11.33-14.54-11.72-1.87-.09-3.69-1.33-5.53-2Z"/><path class="cls-2" d="M77.71,193.13a25.13,25.13,0,0,1-2.94,1.56c-5.69,2.17-11.47,4.13-17.1,6.44-6.41,2.62-9.83,1.4-10.31-5.41a69.88,69.88,0,0,1,1.5-20c1.29-5.68,4.34-11,6.94-16.35,4.27-8.76,7.58-17.69,8.81-27.48,1.28-10.12,7.32-14.38,18.13-13.19-10.53-.08-14,6.42-14.79,15.22-1,11.91-6.16,22.12-12.54,31.89A39.31,39.31,0,0,0,49.1,191c.49,6.16,2.34,7.54,8.14,5.55,4.32-1.48,8.41-3.69,12.77-5,2.34-.69,5-.12,7.59-.12Z"/><path class="cls-2" d="M193.54,241.73c-8-4-14.91-1.76-21.54,3.06-4.27,3.09-9.38,2.69-13.71.73-9.54-4.33-17.85-4.11-25.16,4.18a9.51,9.51,0,0,1-4.75,2.86c-1.81.4-3.84-.22-5.78-.4l0-1.72a34.32,34.32,0,0,1,5.21-1.25c4.45-.37,6.89-2.39,8.23-6.89.53-1.79,4-4,6-3.83,3.94.27,7.86,1.79,11.64,3.21,5.52,2.09,10.78,2.59,16.13-.55C180.3,235,182.83,235,193.54,241.73Z"/><path class="cls-2" d="M120.29,128.3c-1.41,4.17-3.16,8.22-4.79,12.31-1.77,4.47-3,8.74-1.17,13.76,1.29,3.59,1.19,7.85-3.23,10.2a138.44,138.44,0,0,1-38.93,13.88l-.4-1.54c8.62-2.92,17.24-5.82,25.85-8.78a66.5,66.5,0,0,0,7.57-2.92c6.2-3,7.79-6.12,6-12.66-1.2-4.24-.51-7.78,1.37-11.68,2.41-5,4-10.42,5.92-15.65.62-1.64,2.53-5.57,3.18-7.2Z"/><path class="cls-2" d="M123.66,121.09c2.47,10.67,7,24.86,9.15,35.59.87,4.25,2.64,7.22,6.71,8.75,7.29,2.72,14.56,5.46,21.74,8.48-9.38-1.4-18.84-2.52-26.62-8.88-3.94-3.22-5.9-7.06-5.44-12.42.27-3.06-.82-6.28-1.49-9.38-1.31-6-2.76-12-4.15-18C123.66,124.16,123,121.27,123.66,121.09Z"/><path class="cls-2" d="M89.09,280.08c15.8-5,31.64-9.83,47.4-14.95,6.67-2.17,13.15-4.88,19.23-7.16-2.52,1.89-5.43,5.4-9.1,6.61-18,6-36.27,11.31-54.45,16.85a12.74,12.74,0,0,1-2.49.25Z"/><path class="cls-2" d="M83.82,197.32c8.64,7.65,4.65,21.37-5.88,40.67C80.67,224.57,86.7,211.63,83.82,197.32Z"/><path class="cls-2" d="M105.08,177.41c3-2.06,6-4.4,9.19-6.1,5.17-2.72,7-6.62,6.66-12.44-.34-5.25.43-10.57.71-15.86l2.06.1c-.37,8-.47,16-1.33,23.89-.2,1.84-2.78,3.75-4.67,5-3.73,2.49-7.74,4.56-11.64,6.8Z"/><path class="cls-2" d="M153,197.07l10.91,37.82-1.33.38C155.58,223.58,153.42,210.52,153,197.07Z"/><path class="cls-2" d="M89.43,247.93c-2.1-.51-3.72-.8-5.28-1.29a32,32,0,0,0-20.94.49c-4.93,1.75-6,1.18-8.33-3.13C66.66,242.85,78.39,238.77,89.43,247.93Z"/><path class="cls-2" d="M91.57,134.9c2,10.36-2,19.42-8.68,27.67Z"/><path class="cls-2" d="M145.21,62.69c3.75,9.1-1.83,17.11-7.23,25C144.11,74.06,145.13,71,145.21,62.69Z"/><line class="cls-2" x1="162.51" y1="150.74" x2="171.71" y2="169.14"/><path class="cls-3" d="M236.81,313.71l54.15,121H265.14l-8-18H216.5l-8,18H182.73Zm10.89,82-10.82-25.09-11,25.09Z"/><path class="cls-3" d="M325.1,316.14v94.91h47.68v23.7H301.26V316.14Z"/><path class="cls-3" d="M431.42,435.56a60.06,60.06,0,0,1-60.11-60q0-24.79,17.66-42.61t42.45-17.73l-.07.3A61.25,61.25,0,0,1,474,333.06l-17,17a35.1,35.1,0,0,0-25.53-10.6A34.37,34.37,0,0,0,406,350.06a36,36,0,0,0,0,51.06,36.15,36.15,0,0,0,51.06-.07l17,17A59.92,59.92,0,0,1,431.42,435.56Z"/><path class="cls-3" d="M573.65,332.91q17.73,17.74,17.73,42.61a60.18,60.18,0,0,1-60.26,60q-24.94-.07-42.53-17.52a58,58,0,0,1-17.66-42.52q0-24.79,17.66-42.61t42.53-17.73Q555.92,315.18,573.65,332.91Zm-68.06,16.93a36,36,0,0,0,0,51.06,36.13,36.13,0,1,0,0-51.06Z"/><path class="cls-3" d="M625.3,316.14V363.6H665V316.14h23.77V434.75H665V387.21H625.3v47.54H601.54V316.14Z"/><path class="cls-3" d="M801.74,332.91q17.73,17.74,17.73,42.61a60.18,60.18,0,0,1-60.26,60q-24.94-.07-42.52-17.52A57.94,57.94,0,0,1,699,375.52q0-24.79,17.66-42.61t42.52-17.73Q784,315.18,801.74,332.91Zm-68.06,16.93a36.08,36.08,0,0,0,51,51.06,36.08,36.08,0,1,0-51-51.06Z"/><path class="cls-3" d="M853.47,316.14v94.91h47.68v23.7H829.63V316.14Z"/><path class="cls-3" d="M911.45,316.14h23.84V434.75H911.45Z"/><path class="cls-3" d="M983.06,411.4c6.58,0,13.84-5.47,13.84-12,0-10.83-14.53-12.34-22.73-15.19-14.46-4.92-27.23-16.8-27.23-33a36.19,36.19,0,0,1,72-5l-23.67,5a12,12,0,0,0-24.07.07c0,10.69,13.53,13.53,21.76,16,15,4.31,28.17,15.72,28.17,32.23,0,20-17.95,36.15-37.92,36.15-18.34,0-34.93-13.45-37.62-31.11l23.67-5c0,6.62,7.19,12,13.88,12Z"/><path class="cls-3" d="M1109.3,316.14v23.62h-29.14v95h-23.91v-95H1027V316.14Z"/><path class="cls-3" d="M1119.6,316.14h23.84V434.75H1119.6Z"/><path class="cls-3" d="M1213.85,435.56a60.06,60.06,0,0,1-60.11-60q0-24.79,17.66-42.61t42.45-17.73l-.07.3a61.25,61.25,0,0,1,42.67,17.58l-17,17a35.09,35.09,0,0,0-25.53-10.6,34.37,34.37,0,0,0-25.46,10.6,36,36,0,0,0,0,51.06,36.15,36.15,0,0,0,51.06-.07l17,17A59.92,59.92,0,0,1,1213.85,435.56Z"/></svg>