<svg id="Layer_1" data-name="Layer 1" xmlns="http://www.w3.org/2000/svg" viewBox="0 0 1024 1280"><defs><style>.cls-1,.cls-2{fill:#fff;}.cls-1{stroke:#fff;stroke-miterlimit:10;}.cls-3{fill:#da99cc;}.cls-4{fill:#dbe966;}</style></defs><title>Artboard 3</title><path class="cls-1" d="M498.09,805.21c-4.54,11.84-5.18,24.22-5.2,36.71q-.31,149.19-.58,298.38c0,21,9.79,37.83,25,51.75a61.28,61.28,0,0,1,5,4.82c5.62,6.45,4.3,10.91-4,12.07-10,1.4-20.17,2.89-30.27,2.88-11.63,0-23.25-1.63-34.74-3.38,10.95,0,21.92.54,32.82-.18,8.47-.56,16.87-2.53,25.23-4.27,2-.41,4.42-2.13,5.07-3.85.43-1.1-1.76-3.6-3.24-5-16-14.87-26.17-31.91-25.93-55,.87-82.52.91-165,1.3-247.57.09-19.42.3-38.85.49-58.27C489.15,823.48,492.29,813.05,498.09,805.21Z"/><path class="cls-1" d="M473.42,791c10.68-3.12,22.78-6,34.41-10.23,9.9-3.58,17.28-10.73,23.33-19.57C572.44,701,613.6,640.69,655.54,580.93c13.34-19,28.92-36.47,43.47-54.63l1.07.72c-.87,1.39-1.67,2.83-2.61,4.17Q626.34,633,555.19,734.84c-8.46,12.1-16.65,24.39-25.54,36.17C515,790.5,493.77,791.73,473.42,791Z"/><line class="cls-2" x1="284.07" y1="528.11" x2="425.08" y2="731.51"/><path class="cls-2" d="M284.07,528.11c2.93,7.72,5.14,12.81,10.57,20.71L353,633l48.28,69.67,8.13,11.69c5.5,7.86,9.49,11.71,15.69,17.16-2.93-7.72-5.14-12.8-10.56-20.71l-8.1-11.72-48.31-69.65-58.34-84.16A84.65,84.65,0,0,0,284.07,528.11Z"/><path class="cls-1" d="M466.43,1140.3c0,.06,0,.13,0,.2,1.39-1.18,4.68-41,4.55-60.84-.41-62.35-.5-124.7-.8-187.05-.09-19.42-.3-38.85-.48-58.27-.11-10.86-3.25-21.29-9.05-29.13,4.54,11.84,5.18,24.22,5.2,36.71Q466.16,991.11,466.43,1140.3Z"/><path class="cls-1" d="M632.61,1211.29c-3.49-3.46-7.51-6.91-12-8.79-11.77-5-23.85-9.18-35.91-13.42-4.35-1.52-9-2.22-13.48-3.3.17.83.48,1,.82,1.07,15.43,4.29,31,8.35,44.74,17,16.75,10.45,16.94,22.32-.53,31.36A183.37,183.37,0,0,1,580,1248.82c-30.73,8.3-62.3,11.55-94,13.55l-2.15.13q-12.12-.43-24.23-1.2c-31.69-2-63.27-5.25-94-13.55a183.69,183.69,0,0,1-36.32-13.66c-17.47-9-17.27-20.91-.53-31.36,13.78-8.6,29.32-12.66,44.75-17,.33-.09.65-.24.82-1.07-4.5,1.08-9.14,1.78-13.48,3.31-12.06,4.23-24.14,8.46-35.91,13.41-4.45,1.88-8.46,5.33-11.95,8.79-6.95,6.9-7.22,15.18.09,21.54a81.54,81.54,0,0,0,20,12.87c23.48,10.44,48.58,14.94,73.87,18.31,2.68.36,55.91,7.31,81.15,5.86a288.83,288.83,0,0,0,63-6.59c11.91-2.51,41.73-7.8,61.32-16.51a81.67,81.67,0,0,0,20-12.87C639.83,1226.47,639.56,1218.19,632.61,1211.29Z"/><path class="cls-3" d="M650,524.9c-21.73-2.72-43.47-5.32-65.18-8.2-30.51-4-61-8.27-91.35-14,11.89,0,23.92-1.13,35.67.21,33,3.78,65.92,9.18,99,12.68,14.19,1.5,28.74.34,43.08-.52,8-.49,16-3.14,17.61-12.86,2-12.29,7.05-25.32-5.45-35.3-6.66-5.32-13.74-10.11-20.26-15.59,19.17,4.3,32.73,15,38.49,34.41V496c-4.82,13.46-15.08,21.86-26.83,28.89Z"/><path class="cls-3" d="M482.79,11C458,23.38,446.86,35.64,439.36,57.79a39.68,39.68,0,0,0,1.35,30c6,13.8,11.87,27.78,16.27,42.15,4.84,15.76-4.78,32.49-19.78,35.41,1.06-1.84,1.48-3.48,2.54-4.31,14.35-11.21,14.22-25.75,9-41-4.75-14-10.54-27.54-15.39-41.45-1.4-4-1.35-12.82-1.35-12.82s7.43-30,26-44.42"/><path class="cls-3" d="M282.6,481.56c3.17-10.53,8.85-18.79,21.38-23.4-3.75,5.65-6.67,9.67-9.21,13.92-8,13.39-6.92,20.8,3.62,32.31,12.69,13.84,30.09,13.51,46.56,16,3.34.51,6.76.49,12.31.86-33.35,5-62.09-2.62-74.66-27.32Z"/><path class="cls-3" d="M674.73,524.9c14-3.58,23.64-14.28,26.83-28.89"/><path class="cls-3" d="M544.44,177.45c9,1.68,18.09,2.84,26.84,5.29,3.59,1,7.74,4.14,9.36,7.43,17.43,35.26,40,68.11,50.84,106.5,3.18,11.2,7.08,22.22,9.73,33.54,3.44,14.67-3.39,19.53-18.09,17-39.42-6.74-73-26.93-107.67-44.71-3-1.57-6-3.4-8.85-5.23-.81-.51-1.36-1.44-1.31-4.23,4.93,1.9,9.89,3.74,14.79,5.71,32.35,13,64.66,26.07,97,39a23.72,23.72,0,0,0,8.08,1.22c9.61.25,12.32-3.07,10.2-12.66a53.46,53.46,0,0,0-3.28-9.72q-23.77-54.66-47.68-109.27c-5.67-13-13.6-22.88-29.35-23.67-3.78-.18-7.45-2.69-11.17-4.13Z"/><path class="cls-3" d="M392.09,331.86a50.42,50.42,0,0,1-5.93,3.16c-11.49,4.37-23.15,8.33-34.53,13-12.95,5.29-19.85,2.83-20.81-10.93a140.85,140.85,0,0,1,3-40.44c2.6-11.48,8.75-22.25,14-33,8.62-17.68,15.3-35.72,17.8-55.49,2.58-20.42,14.78-29,36.59-26.62-21.25-.16-28.32,13-29.85,30.74-2.07,24-12.43,44.64-25.33,64.38-10.11,15.47-14.18,32.56-12.72,51,1,12.44,4.71,15.22,16.43,11.2,8.72-3,17-7.45,25.78-10.05,4.72-1.39,10.19-.25,15.32-.25Z"/><path class="cls-3" d="M625.93,430c-16.25-8.07-30.1-3.54-43.49,6.18-8.62,6.25-18.92,5.44-27.67,1.47-19.27-8.73-36-8.29-50.8,8.45a19.15,19.15,0,0,1-9.59,5.77c-3.65.81-7.75-.45-11.66-.8l0-3.47c3.51-.88,7-2.23,10.53-2.53,9-.74,13.91-4.83,16.6-13.9,1.07-3.63,8.06-8,12-7.74,8,.55,15.89,3.61,23.5,6.49,11.16,4.21,21.77,5.23,32.57-1.12C599.2,416.3,604.31,416.45,625.93,430Z"/><path class="cls-3" d="M478.05,201c-2.84,8.41-6.37,16.6-9.66,24.86-3.59,9-6,17.62-2.36,27.76,2.59,7.26,2.39,15.86-6.53,20.6a279.52,279.52,0,0,1-78.59,28l-.81-3.12c17.4-5.89,34.81-11.75,52.18-17.71a136.56,136.56,0,0,0,15.3-5.9c12.5-6.08,15.72-12.35,12-25.56-2.42-8.56-1-15.7,2.77-23.58,4.88-10.1,8-21,12-31.59,1.24-3.31,5.1-11.25,6.43-14.53Z"/><path class="cls-3" d="M484.85,186.43c5,21.54,14.07,50.19,18.49,71.85,1.75,8.58,5.31,14.58,13.54,17.66,14.7,5.49,29.38,11,43.88,17.12-18.93-2.83-38-5.08-53.73-17.91-8-6.52-11.92-14.27-11-25.08.53-6.19-1.66-12.68-3-18.95-2.65-12.16-5.57-24.26-8.38-36.39C484.85,192.62,483.55,186.8,484.85,186.43Z"/><path class="cls-3" d="M415.06,507.4c31.91-10,63.89-19.85,95.7-30.19,13.45-4.37,26.55-9.85,38.81-14.45-5.07,3.81-11,10.9-18.36,13.35-36.41,12-73.23,22.84-109.93,34a25.07,25.07,0,0,1-5,.49Z"/><path class="cls-3" d="M404.42,340.33c17.45,15.44,9.39,43.13-11.87,82.1C398.07,395.34,410.23,369.21,404.42,340.33Z"/><path class="cls-3" d="M447.34,300.13c6.16-4.15,12-8.88,18.56-12.32,10.43-5.49,14.21-13.35,13.44-25.12-.69-10.59.87-21.33,1.43-32l4.17.18c-.76,16.1-.95,32.25-2.69,48.24-.41,3.72-5.6,7.58-9.42,10.14-7.53,5-15.63,9.2-23.5,13.73Z"/><path class="cls-3" d="M544,339.82q11,38.18,22,76.35l-2.68.76C549.29,393.34,544.93,367,544,339.82Z"/><path class="cls-3" d="M415.75,442.49c-4.24-1-7.51-1.62-10.66-2.6-14.22-4.47-28.16-4-42.28,1-9.94,3.53-12,2.38-16.8-6.32C369.77,432.23,393.47,424,415.75,442.49Z"/><path class="cls-3" d="M420.07,214.31c4.07,20.91-4,39.21-17.52,55.86C408.48,251.25,414.41,232.34,420.07,214.31Z"/><path class="cls-3" d="M528.36,68.54c7.57,18.35-3.7,34.54-14.6,50.44C526.13,91.49,528.2,85.3,528.36,68.54Z"/><line class="cls-3" x1="563.28" y1="246.28" x2="581.86" y2="283.43"/><path class="cls-4" d="M169.3,585.15l38.45,85.92H189.41l-5.69-12.79H154.89l-5.69,12.79H130.92ZM177,643.34l-7.67-17.81-7.79,17.81Z"/><path class="cls-4" d="M232,586.88v67.38h33.85v16.81H215.05V586.88Z"/><path class="cls-4" d="M307.44,671.65a42.73,42.73,0,0,1,0-85.45l-.05.21a43.47,43.47,0,0,1,30.29,12.48L325.62,611a24.93,24.93,0,0,0-18.13-7.52A24.39,24.39,0,0,0,289.42,611a25.6,25.6,0,0,0,0,36.25,25.68,25.68,0,0,0,36.25-.06l12.06,12.07A42.51,42.51,0,0,1,307.44,671.65Z"/><path class="cls-4" d="M408.39,598.79A42.48,42.48,0,1,1,378.2,586.2,41.2,41.2,0,0,1,408.39,598.79Zm-48.31,12a25.6,25.6,0,0,0,0,36.25,25.65,25.65,0,1,0,0-36.25Z"/><path class="cls-4" d="M445.05,586.88v33.69H473.2V586.88h16.87v84.19H473.2V637.33H445.05v33.74H428.18V586.88Z"/><path class="cls-4" d="M570.29,598.79A42.49,42.49,0,1,1,540.1,586.2,41.24,41.24,0,0,1,570.29,598.79ZM522,610.8a25.61,25.61,0,0,0,36.19,36.25A25.61,25.61,0,1,0,522,610.8Z"/><path class="cls-4" d="M607,586.88v67.38h33.85v16.81H590.08V586.88Z"/><path class="cls-4" d="M648.15,586.88h16.92v84.19H648.15Z"/><path class="cls-4" d="M699,654.5c4.67,0,9.83-3.88,9.83-8.56,0-7.68-10.31-8.75-16.14-10.77-10.26-3.5-19.33-11.93-19.33-23.39a25.69,25.69,0,0,1,51.13-3.55l-16.81,3.55a8.54,8.54,0,0,0-17.08.05c0,7.58,9.6,9.6,15.45,11.34,10.62,3.06,20,11.16,20,22.88,0,14.2-12.74,25.66-26.91,25.66-13,0-24.8-9.55-26.71-22.09l16.8-3.57c0,4.7,5.11,8.53,9.86,8.53Z"/><path class="cls-4" d="M788.59,586.88v16.76H767.91v67.43h-17V603.64H730.2V586.88Z"/><path class="cls-4" d="M795.9,586.88h16.92v84.19H795.9Z"/><path class="cls-4" d="M862.8,671.65a42.73,42.73,0,0,1,0-85.45l0,.21A43.47,43.47,0,0,1,893,598.89L881,611a24.93,24.93,0,0,0-18.13-7.52A24.39,24.39,0,0,0,844.78,611a25.6,25.6,0,0,0,0,36.25,25.68,25.68,0,0,0,36.25-.06l12.06,12.07A42.51,42.51,0,0,1,862.8,671.65Z"/></svg>