<svg id="Layer_1" data-name="Layer 1" xmlns="http://www.w3.org/2000/svg" viewBox="0 0 808 145"><defs><style>.cls-1{fill:#dbe966;}</style></defs><title>Artboard 6</title><path class="cls-1" d="M61.73,33.24,100.12,119H81.81l-5.68-12.78H47.34L41.66,119H23.4Zm7.72,58.1L61.79,73.55,54,91.34Z"/><path class="cls-1" d="M124.33,35v67.28h33.79V119H107.43V35Z"/><path class="cls-1" d="M199.69,119.61a42.58,42.58,0,0,1-42.61-42.56,41.41,41.41,0,0,1,12.52-30.2,41.05,41.05,0,0,1,30.09-12.57l-.05.21A43.43,43.43,0,0,1,229.89,47l-12,12a24.9,24.9,0,0,0-18.09-7.51A24.41,24.41,0,0,0,181.7,59a25.57,25.57,0,0,0,0,36.2,25.61,25.61,0,0,0,36.19,0l12.05,12A42.45,42.45,0,0,1,199.69,119.61Z"/><path class="cls-1" d="M300.51,46.85a41.19,41.19,0,0,1,12.57,30.2,42.66,42.66,0,0,1-42.71,42.56,42.56,42.56,0,0,1-42.66-42.56,41.4,41.4,0,0,1,12.51-30.2,42.43,42.43,0,0,1,60.29,0Zm-48.24,12a25.55,25.55,0,0,0,0,36.19A25.63,25.63,0,0,0,296,76.94a25.73,25.73,0,0,0-25.6-25.6A24.44,24.44,0,0,0,252.27,58.85Z"/><path class="cls-1" d="M337.13,35V68.6h28.11V35h16.85V119H365.24V85.34H337.13V119H320.29V35Z"/><path class="cls-1" d="M462.2,46.85a41.19,41.19,0,0,1,12.57,30.2,42.66,42.66,0,0,1-42.71,42.56,42.58,42.58,0,0,1-42.67-42.56,41.41,41.41,0,0,1,12.52-30.2,42.43,42.43,0,0,1,60.29,0ZM414,58.85A25.55,25.55,0,0,0,414,95a25.64,25.64,0,0,0,43.71-18.1,25.74,25.74,0,0,0-25.61-25.6A24.44,24.44,0,0,0,414,58.85Z"/><path class="cls-1" d="M498.87,35v67.28h33.8V119H482V35Z"/><path class="cls-1" d="M540,35h16.89V119H540Z"/><path class="cls-1" d="M590.74,102.48c4.66,0,9.81-3.87,9.81-8.54,0-7.68-10.3-8.75-16.11-10.76-10.25-3.49-19.31-11.91-19.31-23.36a25.66,25.66,0,0,1,51.06-3.54l-16.78,3.54a8.53,8.53,0,0,0-17.06,0c0,7.58,9.58,9.59,15.42,11.32,10.61,3.06,20,11.15,20,22.85,0,14.18-12.72,25.63-26.88,25.63-13,0-24.76-9.54-26.67-22.06L581,94c0,4.69,5.1,8.52,9.84,8.52Z"/><path class="cls-1" d="M680.22,35V51.7H659.57V119h-17V51.7h-20.7V35Z"/><path class="cls-1" d="M687.53,35h16.9V119h-16.9Z"/><path class="cls-1" d="M754.34,119.61a42.58,42.58,0,0,1-42.61-42.56,41.41,41.41,0,0,1,12.52-30.2,41.05,41.05,0,0,1,30.09-12.57l-.05.21A43.43,43.43,0,0,1,784.54,47l-12,12a24.9,24.9,0,0,0-18.09-7.51,24.41,24.41,0,0,0-18,7.51,25.57,25.57,0,0,0,0,36.2,25.61,25.61,0,0,0,36.19,0l12.05,12A42.45,42.45,0,0,1,754.34,119.61Z"/></svg>