<svg id="Layer_1" data-name="Layer 1" xmlns="http://www.w3.org/2000/svg" viewBox="0 0 1024 1280"><defs><style>.cls-1{fill:#202020;}.cls-2{fill:#da99cc;}.cls-3{fill:#dbe966;}</style></defs><title>Artboard 5</title><path d="M498.11,805c-4.54,11.82-5.17,24.19-5.2,36.66q-.3,149-.58,298c0,21,9.79,37.78,25,51.68a59.7,59.7,0,0,1,5,4.82c5.61,6.44,4.29,10.9-4,12.06-10,1.4-20.15,2.88-30.24,2.87-11.61,0-23.22-1.62-34.69-3.38,10.93,0,21.89.55,32.77-.17,8.46-.57,16.86-2.53,25.2-4.27,2-.41,4.41-2.13,5.07-3.84.42-1.11-1.76-3.6-3.24-5-16-14.85-26.14-31.87-25.9-54.92.87-82.41.91-164.83,1.3-247.25.09-19.4.3-38.8.49-58.2C489.18,823.24,492.32,812.82,498.11,805Z"/><path d="M473.47,790.82c10.67-3.11,22.75-6,34.36-10.21,9.89-3.57,17.26-10.72,23.31-19.55C572.36,700.91,613.48,640.69,655.36,581c13.32-19,28.88-36.41,43.41-54.56l1.07.72c-.86,1.4-1.67,2.83-2.61,4.17q-71,101.7-142.1,203.39c-8.44,12.08-16.62,24.36-25.5,36.12C515,790.3,493.79,791.53,473.47,790.82Z"/><line x1="284.37" y1="528.25" x2="425.19" y2="731.39"/><path class="cls-1" d="M284.37,528.26A84.57,84.57,0,0,0,294.93,549l58.25,84,48.19,69.55,8.13,11.69a84.57,84.57,0,0,0,15.69,17.15,84.57,84.57,0,0,0-10.56-20.71L406.54,699l-48.23-69.53s-48.56-70-58.25-84A84.57,84.57,0,0,0,284.37,528.26Z"/><path d="M466.49,1139.66c0,.06,0,.13,0,.2,1.39-1.18,4.67-40.95,4.54-60.77-.4-62.26-.5-124.53-.79-186.8-.09-19.4-.3-38.8-.49-58.2-.1-10.85-3.24-21.27-9-29.09,4.53,11.82,5.17,24.19,5.19,36.66Q466.22,990.66,466.49,1139.66Z"/><path d="M632.46,1210.56c-3.49-3.45-7.5-6.9-11.94-8.77-11.75-5-23.82-9.18-35.86-13.41-4.34-1.52-9-2.22-13.47-3.3.17.83.49,1,.82,1.07,15.41,4.29,30.93,8.34,44.69,16.93,16.73,10.44,16.92,22.29-.53,31.32A183.19,183.19,0,0,1,579.9,1248c-30.68,8.29-62.22,11.54-93.87,13.54l-2.14.12q-12.11-.43-24.2-1.19c-31.65-2-63.19-5.24-93.87-13.54a183,183,0,0,1-36.27-13.64c-17.45-9-17.26-20.88-.53-31.32,13.76-8.59,29.27-12.64,44.69-16.92.33-.1.64-.25.81-1.08-4.49,1.08-9.12,1.78-13.46,3.31-12,4.22-24.11,8.45-35.86,13.4-4.44,1.87-8.45,5.32-11.94,8.77-6.94,6.89-7.21,15.16.1,21.51a81.33,81.33,0,0,0,20,12.86c23.45,10.42,48.52,14.92,73.77,18.28,2.69.36,55.84,7.31,81.05,5.86a288.89,288.89,0,0,0,62.9-6.58c11.89-2.52,41.68-7.8,61.24-16.49a81.33,81.33,0,0,0,20-12.86C639.67,1225.72,639.39,1217.45,632.46,1210.56Z"/><path class="cls-2" d="M649.79,525.05c-21.7-2.72-43.42-5.32-65.1-8.19-30.47-4-60.91-8.26-91.24-14,11.88,0,23.9-1.13,35.63.22,33,3.77,65.83,9.16,98.87,12.66,14.17,1.5,28.7.34,43-.53,8-.48,16-3.13,17.59-12.83,2-12.28,7-25.29-5.44-35.25-6.65-5.32-13.72-10.11-20.23-15.58,19.15,4.3,32.69,14.94,38.44,34.37v10.3c-4.81,13.45-15.07,21.84-26.8,28.86Z"/><path class="cls-2" d="M482.83,11.8C458.09,24.17,447,36.41,439.46,58.54a39.51,39.51,0,0,0,1.35,29.94c6,13.78,11.84,27.75,16.24,42.1,4.83,15.74-4.77,32.45-19.75,35.37,1.05-1.84,1.47-3.48,2.53-4.3,14.34-11.2,14.21-25.73,9-41-4.74-13.93-10.52-27.5-15.36-41.39-1.4-4-1.36-12.8-1.36-12.8s7.42-29.94,26-44.37"/><path class="cls-2" d="M282.89,481.76c3.17-10.51,8.84-18.76,21.35-23.36-3.74,5.63-6.65,9.65-9.19,13.89-8,13.37-6.92,20.78,3.61,32.27,12.68,13.82,30,13.49,46.51,16,3.33.51,6.75.48,12.29.85-33.3,5-62-2.62-74.57-27.29Z"/><path class="cls-2" d="M674.52,525.05c14-3.58,23.61-14.26,26.8-28.86"/><path class="cls-2" d="M544.4,178c9,1.68,18.07,2.84,26.81,5.29,3.58,1,7.73,4.13,9.35,7.41,17.41,35.22,39.89,68,50.77,106.36,3.17,11.19,7.07,22.2,9.72,33.51,3.43,14.65-3.39,19.5-18.07,17-39.37-6.73-72.9-26.9-107.53-44.65-3-1.56-6-3.39-8.84-5.22-.81-.51-1.36-1.44-1.31-4.23,4.92,1.9,9.88,3.74,14.78,5.71,32.3,13,64.57,26,96.91,38.92a24,24,0,0,0,8.08,1.22c9.59.25,12.3-3.08,10.18-12.65A53.07,53.07,0,0,0,632,317q-23.76-54.58-47.62-109.12c-5.67-13-13.58-22.86-29.32-23.64-3.77-.19-7.44-2.69-11.15-4.13Z"/><path class="cls-2" d="M392.25,332.25a48.9,48.9,0,0,1-5.93,3.15c-11.48,4.37-23.12,8.33-34.49,13-12.92,5.29-19.81,2.83-20.78-10.91a140.86,140.86,0,0,1,3-40.39c2.61-11.47,8.75-22.22,14-33,8.61-17.65,15.28-35.68,17.78-55.42,2.57-20.4,14.76-29,36.54-26.58-21.22-.16-28.28,12.94-29.81,30.69-2.07,24-12.42,44.59-25.3,64.3-10.09,15.46-14.16,32.52-12.7,50.91,1,12.42,4.7,15.2,16.4,11.19,8.71-3,16.95-7.44,25.75-10,4.72-1.39,10.18-.25,15.31-.25Z"/><path class="cls-2" d="M625.78,430.24c-16.22-8.06-30-3.54-43.43,6.17-8.6,6.25-18.9,5.43-27.63,1.47-19.25-8.72-36-8.28-50.74,8.44a19.14,19.14,0,0,1-9.57,5.76c-3.65.8-7.75-.45-11.65-.8l0-3.47c3.5-.87,7-2.22,10.51-2.52,9-.74,13.9-4.82,16.58-13.88,1.08-3.63,8-8,12-7.73,8,.54,15.87,3.6,23.47,6.47,11.15,4.21,21.74,5.23,32.53-1.11C599.09,416.59,604.2,416.73,625.78,430.24Z"/><path class="cls-2" d="M478.1,201.55c-2.84,8.4-6.37,16.57-9.65,24.83-3.58,9-6,17.6-2.36,27.72,2.58,7.25,2.39,15.85-6.53,20.57a278.76,278.76,0,0,1-78.48,28l-.81-3.11c17.38-5.89,34.76-11.74,52.11-17.7A136.13,136.13,0,0,0,447.66,276c12.48-6.07,15.7-12.34,12-25.53-2.42-8.56-1-15.68,2.77-23.55,4.86-10.09,8-21,11.94-31.55,1.24-3.31,5.09-11.24,6.42-14.52Z"/><path class="cls-2" d="M484.89,187c5,21.51,14.05,50.12,18.46,71.75,1.75,8.58,5.3,14.57,13.53,17.64,14.68,5.48,29.34,11,43.82,17.1-18.91-2.82-38-5.07-53.66-17.89-8-6.5-11.91-14.25-11-25.05.53-6.17-1.65-12.66-3-18.92-2.65-12.14-5.57-24.23-8.38-36.34C484.89,193.19,483.59,187.38,484.89,187Z"/><path class="cls-2" d="M415.18,507.56c31.87-10,63.81-19.81,95.58-30.14,13.44-4.37,26.52-9.84,38.76-14.44-5.06,3.81-10.93,10.89-18.33,13.34-36.37,12-73.14,22.81-109.79,34a25.14,25.14,0,0,1-5,.5Z"/><path class="cls-2" d="M404.55,340.71c17.44,15.42,9.39,43.08-11.84,82C398.22,395.66,410.36,369.55,404.55,340.71Z"/><path class="cls-2" d="M447.43,300.56c6.15-4.14,12-8.87,18.53-12.3,10.41-5.48,14.19-13.33,13.43-25.08-.7-10.58.86-21.31,1.43-32l4.15.19c-.75,16.07-1,32.2-2.68,48.17-.41,3.72-5.6,7.57-9.41,10.12-7.52,5-15.61,9.2-23.47,13.72Z"/><path class="cls-2" d="M544,340.2q11,38.13,22,76.26l-2.67.75C549.24,393.65,544.89,367.32,544,340.2Z"/><path class="cls-2" d="M415.88,442.74c-4.25-1-7.51-1.61-10.65-2.6-14.2-4.46-28.13-4-42.23,1-9.93,3.52-12,2.37-16.78-6.32C370,432.5,393.62,424.28,415.88,442.74Z"/><path class="cls-2" d="M420.18,214.85c4.07,20.89-3.95,39.16-17.49,55.79C408.61,251.75,414.54,232.86,420.18,214.85Z"/><path class="cls-2" d="M528.35,69.27c7.55,18.33-3.7,34.5-14.6,50.38C526.11,92.19,528.18,86,528.35,69.27Z"/><line class="cls-2" x1="563.22" y1="246.78" x2="581.77" y2="283.89"/><path class="cls-3" d="M169.73,585.24,208.12,671H189.81l-5.68-12.78H155.34L149.66,671H131.4Zm7.72,58.1-7.66-17.79L162,643.34Z"/><path class="cls-3" d="M232.33,587v67.28h33.79V671H215.43V587Z"/><path class="cls-3" d="M307.69,671.61a42.67,42.67,0,0,1,0-85.33l-.05.21A43.43,43.43,0,0,1,337.89,599l-12.05,12a24.9,24.9,0,0,0-18.09-7.51A24.41,24.41,0,0,0,289.7,611a25.57,25.57,0,0,0,0,36.2,25.61,25.61,0,0,0,36.19-.05l12.05,12A42.45,42.45,0,0,1,307.69,671.61Z"/><path class="cls-3" d="M408.51,598.85a42.43,42.43,0,1,1-30.14-12.57A41.19,41.19,0,0,1,408.51,598.85Zm-48.24,12A25.57,25.57,0,0,0,396.41,647a25.57,25.57,0,1,0-36.14-36.19Z"/><path class="cls-3" d="M445.13,587V620.6h28.11V587h16.85V671H473.24V637.34H445.13V671H428.29V587Z"/><path class="cls-3" d="M570.2,598.85a42.43,42.43,0,1,1-30.14-12.57A41.19,41.19,0,0,1,570.2,598.85Zm-48.24,12A25.57,25.57,0,0,0,558.1,647,25.57,25.57,0,1,0,522,610.85Z"/><path class="cls-3" d="M606.87,587v67.28h33.8V671H590V587Z"/><path class="cls-3" d="M648,587h16.89V671H648Z"/><path class="cls-3" d="M698.74,654.48c4.66,0,9.81-3.87,9.81-8.54,0-7.68-10.3-8.75-16.11-10.76-10.25-3.49-19.31-11.91-19.31-23.36a25.66,25.66,0,0,1,51.06-3.54l-16.78,3.54a8.53,8.53,0,0,0-17.06,0c0,7.58,9.58,9.59,15.42,11.32,10.61,3.06,20,11.15,20,22.85,0,14.18-12.72,25.63-26.88,25.63-13,0-24.76-9.54-26.67-22.06L689,646c0,4.69,5.1,8.52,9.84,8.52Z"/><path class="cls-3" d="M788.22,587V603.7H767.57V671h-17V603.7h-20.7V587Z"/><path class="cls-3" d="M795.53,587h16.9V671h-16.9Z"/><path class="cls-3" d="M862.34,671.61a42.67,42.67,0,0,1,0-85.33l-.05.21A43.43,43.43,0,0,1,892.54,599l-12,12a24.9,24.9,0,0,0-18.09-7.51,24.41,24.41,0,0,0-18,7.51,25.57,25.57,0,0,0,0,36.2,25.61,25.61,0,0,0,36.19-.05l12.05,12A42.45,42.45,0,0,1,862.34,671.61Z"/></svg>