<svg id="Layer_1" data-name="Layer 1" xmlns="http://www.w3.org/2000/svg" viewBox="0 0 892 89"><defs><style>.cls-1{fill:#333;}</style></defs><title>Artboard 1</title><path class="cls-1" d="M38.62,5.68,74.56,86H57.42L52.1,74h-27L19.82,86H2.73Zm7.23,54.39L38.67,43.42,31.39,60.07Z"/><path class="cls-1" d="M97.21,7.29v63h31.64V86H81.39V7.29Z"/><path class="cls-1" d="M152.19,30.09a16.53,16.53,0,1,1-16.5,16.55A16.65,16.65,0,0,1,152.19,30.09Z"/><path class="cls-1" d="M215.38,86.54A38.79,38.79,0,0,1,187.2,74.92a38.5,38.5,0,0,1-11.72-28.23A38.75,38.75,0,0,1,187.2,18.42,38.48,38.48,0,0,1,215.38,6.65l0,.2a40.65,40.65,0,0,1,28.32,11.67L232.37,29.8a23.29,23.29,0,0,0-16.94-7,22.83,22.83,0,0,0-16.9,7,23.29,23.29,0,0,0-7,16.94,23.1,23.1,0,0,0,7,16.95,24,24,0,0,0,33.89,0L243.7,74.92A39.77,39.77,0,0,1,215.38,86.54Z"/><path class="cls-1" d="M309.76,18.42a38.54,38.54,0,0,1,11.77,28.27,38.28,38.28,0,0,1-11.77,28.23,40.08,40.08,0,0,1-56.44,0A38.46,38.46,0,0,1,241.6,46.69a38.71,38.71,0,0,1,11.72-28.27,39.72,39.72,0,0,1,56.44,0ZM264.6,29.65a23.3,23.3,0,0,0-7,17,23.1,23.1,0,0,0,7,16.94,24,24,0,0,0,33.83,0,22.91,22.91,0,0,0,7.08-16.94,23.13,23.13,0,0,0-7.08-17,23.86,23.86,0,0,0-33.83,0Z"/><path class="cls-1" d="M344.77,30.09a16.53,16.53,0,1,1-16.5,16.55A16.65,16.65,0,0,1,344.77,30.09Z"/><path class="cls-1" d="M386.76,7.29V38.78h26.32V7.29h15.77V86H413.08V54.46H386.76V86H371V7.29Z"/><path class="cls-1" d="M503.85,18.42a38.54,38.54,0,0,1,11.77,28.27,38.28,38.28,0,0,1-11.77,28.23,40.08,40.08,0,0,1-56.44,0,38.5,38.5,0,0,1-11.72-28.23,38.75,38.75,0,0,1,11.72-28.27,39.72,39.72,0,0,1,56.44,0ZM458.69,29.65a23.29,23.29,0,0,0-7,17,23.09,23.09,0,0,0,7,16.94,24,24,0,0,0,33.84,0,22.91,22.91,0,0,0,7.08-16.94,23.13,23.13,0,0,0-7.08-17,23.88,23.88,0,0,0-33.84,0Z"/><path class="cls-1" d="M538.86,30.09a16.53,16.53,0,1,1-16.5,16.55A16.65,16.65,0,0,1,538.86,30.09Z"/><path class="cls-1" d="M580.9,7.29v63h31.64V86H565.08V7.29Z"/><path class="cls-1" d="M619.38,7.29H635.2V86H619.38Z"/><path class="cls-1" d="M666.9,70.5c4.37,0,9.19-3.62,9.19-8,0-7.19-9.64-8.19-15.09-10.08-9.59-3.27-18.07-11.15-18.07-21.87a24,24,0,0,1,47.8-3.31L675,30.56a8,8,0,0,0-16,.05c0,7.09,9,9,14.44,10.6,9.93,2.87,18.69,10.44,18.69,21.39,0,13.28-11.91,24-25.16,24-12.17,0-23.18-8.93-25-20.65l15.71-3.35c0,4.4,4.77,8,9.21,8Z"/><path class="cls-1" d="M715.52,30.09A16.53,16.53,0,1,1,699,46.64,16.65,16.65,0,0,1,715.52,30.09Z"/><path class="cls-1" d="M793.4,7.29V23H774.07V86H758.2V23H738.81V7.29Z"/><path class="cls-1" d="M800.24,7.29h15.82V86H800.24Z"/><path class="cls-1" d="M862.79,86.54a38.77,38.77,0,0,1-28.17-11.62A38.46,38.46,0,0,1,822.9,46.69a38.71,38.71,0,0,1,11.72-28.27A38.44,38.44,0,0,1,862.79,6.65l0,.2a40.65,40.65,0,0,1,28.32,11.67L879.78,29.8a23.29,23.29,0,0,0-16.94-7,22.84,22.84,0,0,0-16.9,7,23.33,23.33,0,0,0-7,16.94,23.14,23.14,0,0,0,7,16.95,24,24,0,0,0,33.89,0l11.28,11.28A39.76,39.76,0,0,1,862.79,86.54Z"/></svg>